<svg xmlns="http://www.w3.org/2000/svg" viewBox="0 0 64 64" width="64" height="64">
  <defs>
    <linearGradient id="grad" x1="0%" y1="0%" x2="100%" y2="100%">
      <stop offset="0%" style="stop-color:#6366f1;stop-opacity:1" />
      <stop offset="100%" style="stop-color:#4f46e5;stop-opacity:1" />
    </linearGradient>
  </defs>
  <!-- Background circle -->
  <circle cx="32" cy="32" r="30" fill="url(#grad)"/>
  <!-- S shape (stylized for S-AES) -->
  <path d="M 20 16 Q 20 12 24 12 Q 28 12 28 16 Q 28 20 24 22 L 40 26 Q 44 28 44 32 Q 44 36 40 36 Q 36 36 36 32" 
        stroke="white" stroke-width="3" fill="none" stroke-linecap="round" stroke-linejoin="round"/>
  <path d="M 36 32 Q 36 36 40 36 Q 44 36 44 40 Q 44 48 36 48 Q 28 48 28 44 Q 28 40 32 42 L 24 40" 
        stroke="white" stroke-width="3" fill="none" stroke-linecap="round" stroke-linejoin="round"/>
  <!-- Small encryption symbol (lock) -->
  <g transform="translate(18, 42)">
    <rect x="0" y="4" width="8" height="6" rx="1" fill="white" opacity="0.7"/>
    <path d="M 2 4 V 2 A 2 2 0 0 1 6 2 V 4" stroke="white" stroke-width="1.5" fill="none" opacity="0.7"/>
  </g>
</svg>
